<svg width="118" height="120" viewBox="0 0 118 120" fill="none" xmlns="http://www.w3.org/2000/svg">
<path fill-rule="evenodd" clip-rule="evenodd" d="M38.7746 117.872C24.2309 112.554 16.9648 97.4072 10.1528 83.4595C3.47174 69.7798 -2.37521 55.332 0.971819 40.47C4.62932 24.2293 12.9792 6.70138 28.6632 1.2665C43.6443 -3.92479 58.2323 8.01713 72.0229 15.8491C82.2396 21.6514 89.3123 30.1154 96.2252 39.6366C105.303 52.14 120.359 63.5043 117.687 78.743C114.908 94.5918 98.1951 103.266 83.8172 110.395C69.633 117.428 53.637 123.306 38.7746 117.872Z" fill="url(#paint0_linear_60_2342)" fill-opacity="0.5"/>
<path d="M57.1454 73.6451C57.5042 73.697 57.8601 73.7766 58.2123 73.8618C58.3304 73.8899 58.4482 73.9194 58.5656 73.9504C58.683 73.9813 58.8001 74.0137 58.9167 74.0476C59.0334 74.0814 59.1495 74.1167 59.2653 74.1534C59.3811 74.19 59.4963 74.2281 59.6111 74.2676C59.7259 74.3071 59.8402 74.3481 59.954 74.3904C60.0678 74.4327 60.1811 74.4764 60.2938 74.5215C60.4066 74.5665 60.5187 74.613 60.6303 74.6608C60.7418 74.7087 60.8528 74.7579 60.9632 74.8085C61.0735 74.859 61.1832 74.9109 61.2923 74.9642C61.4014 75.0174 61.5097 75.072 61.6174 75.1279C61.7252 75.1837 61.8322 75.2409 61.9385 75.2995C62.0448 75.358 62.1504 75.4179 62.2552 75.479C62.36 75.5401 62.4641 75.6025 62.5674 75.6661C62.6706 75.7298 62.7731 75.7947 62.8748 75.8609C62.9765 75.9271 63.0774 75.9945 63.1774 76.0631C63.2774 76.1318 63.3765 76.2016 63.4748 76.2727C63.5731 76.3438 63.6705 76.4161 63.767 76.4895C63.8635 76.563 63.959 76.6376 64.0537 76.7134C64.1483 76.7892 64.242 76.8662 64.3348 76.9443C64.4275 77.0224 64.5193 77.1016 64.6101 77.182C64.7009 77.2624 64.7907 77.3438 64.8794 77.4263C64.9682 77.5089 65.0559 77.5926 65.1427 77.6773C65.2294 77.762 65.315 77.8477 65.3996 77.9345C65.4842 78.0213 65.5677 78.1092 65.6501 78.198C65.7325 78.2869 65.8138 78.3767 65.894 78.4676C65.9742 78.5584 66.0533 78.6503 66.1312 78.743C66.2091 78.8358 66.2858 78.9295 66.3614 79.0242C66.437 79.1189 66.5115 79.2145 66.5847 79.3109C66.658 79.4074 66.73 79.5048 66.8008 79.603C66.8717 79.7013 66.9412 79.8005 67.0096 79.9005C67.078 80.0004 67.1451 80.1012 67.211 80.2027C67.277 80.3044 67.3416 80.4068 67.4049 80.51C68.6775 82.6182 69.0013 85.0501 68.3844 87.4309C67.7628 89.8298 66.2737 91.7873 64.1299 93.043C60.9363 94.9136 57.2995 95.0489 53.788 94.1463C52.8775 93.9325 51.9662 93.5508 51.1482 93.1031C50.7355 92.8773 50.3324 92.614 49.9095 92.4091C49.4028 92.1636 48.8199 92.0722 48.296 91.8568C46.6701 91.1882 45.1794 89.9899 44.1008 88.616C42.574 86.6709 41.869 84.2902 42.1905 81.8296C42.2001 81.7525 42.2106 81.6756 42.2221 81.5987C42.2337 81.522 42.2462 81.4454 42.2596 81.3688C42.273 81.2923 42.2874 81.216 42.3027 81.1398C42.318 81.0637 42.3343 80.9877 42.3515 80.9119C42.3687 80.8362 42.3869 80.7607 42.406 80.6854C42.4251 80.6101 42.4452 80.535 42.4662 80.4602C42.4871 80.3854 42.509 80.3109 42.5318 80.2366C42.5546 80.1623 42.5784 80.0884 42.6031 80.0147C42.6277 79.941 42.6533 79.8676 42.6798 79.7946C42.7063 79.7215 42.7337 79.6488 42.7621 79.5765C42.7904 79.5041 42.8195 79.4321 42.8496 79.3604C42.8797 79.2888 42.9107 79.2175 42.9425 79.1466C42.9744 79.0757 43.0072 79.0052 43.0408 78.9351C43.0744 78.8651 43.1089 78.7954 43.1443 78.7262C43.1796 78.6569 43.2159 78.5881 43.2529 78.5198C43.29 78.4514 43.3279 78.3836 43.3667 78.3162C43.4054 78.2488 43.445 78.1819 43.4855 78.1155C43.5259 78.049 43.5672 77.9831 43.6092 77.9177C43.6513 77.8523 43.6941 77.7874 43.7378 77.7231C43.7815 77.6587 43.826 77.5949 43.8713 77.5317C43.9166 77.4685 43.9626 77.4058 44.0094 77.3437C44.0563 77.2815 44.1039 77.22 44.1522 77.1591C44.2006 77.0981 44.2497 77.0378 44.2996 76.9781C44.3494 76.9183 44.4 76.8592 44.4513 76.8008C44.5027 76.7423 44.5548 76.6844 44.6075 76.6273C44.6603 76.57 44.7138 76.5135 44.768 76.4577C44.8222 76.4017 44.877 76.3466 44.9326 76.2921C44.9882 76.2375 45.0444 76.1837 45.1012 76.1305C45.1582 76.0774 45.2157 76.025 45.2739 75.9733C45.3321 75.9216 45.3909 75.8706 45.4504 75.8203C45.5098 75.7701 45.5699 75.7205 45.6306 75.6718C45.6913 75.623 45.7527 75.575 45.8146 75.5277C45.926 75.4453 46.039 75.3653 46.1537 75.2875C46.2684 75.2097 46.3846 75.1343 46.5024 75.0612C46.6202 74.9881 46.7394 74.9175 46.86 74.8493C46.9807 74.781 47.1027 74.7152 47.226 74.6519C47.3494 74.5886 47.474 74.5279 47.5999 74.4696C47.7257 74.4113 47.8527 74.3557 47.9808 74.3026C48.1089 74.2494 48.238 74.1989 48.3682 74.1511C48.4984 74.1032 48.6295 74.0579 48.7615 74.0154C48.8935 73.9728 49.0263 73.9329 49.1599 73.8957C49.2936 73.8586 49.428 73.8241 49.5631 73.7923C49.6981 73.7606 49.8337 73.7317 49.97 73.7054C50.1062 73.6792 50.243 73.6557 50.3802 73.635C50.5174 73.6142 50.6549 73.5963 50.7929 73.5812C50.9308 73.5661 51.069 73.5538 51.2074 73.5442C51.3458 73.5347 51.4844 73.528 51.6231 73.5241C51.7619 73.5202 51.9006 73.5191 52.0394 73.5208C52.6188 73.5243 53.1937 73.6417 53.7696 73.6428C54.2655 73.6438 54.7678 73.5458 55.2639 73.5192C55.8959 73.4852 56.5209 73.5584 57.1454 73.6451Z" fill="#66727F"/>
<path d="M58.946 90.701C59.3209 90.9437 60.7903 92.5122 61.2064 92.918C59.5663 93.4492 57.8959 93.4669 56.1981 93.299C55.3087 93.1984 54.4582 92.9923 53.5982 92.7549C54.1145 92.6336 54.6458 92.562 55.1646 92.4463C56.5632 92.1346 57.7984 91.5488 58.946 90.701Z" fill="#FAFCFF"/>
<path d="M61.6866 87.3104C62.8157 88.4473 63.9704 89.5605 65.1095 90.6877C64.3765 91.3961 63.5903 91.9235 62.6717 92.3645C62.3898 92.4986 62.1011 92.6089 61.8093 92.7197C61.0873 91.8848 60.2267 91.1043 59.4252 90.3424C60.379 89.5173 61.0978 88.4127 61.6866 87.3104Z" fill="#FAFCFF"/>
<path d="M62.5538 82.3094C62.9424 82.6303 63.2958 83.0176 63.6552 83.3711C64.8396 84.5364 65.986 85.8155 67.2386 86.9027C66.9892 87.9183 66.531 88.7903 65.9782 89.6696C65.8359 89.8894 65.6799 90.0897 65.5153 90.2929C65.1037 89.7989 64.6077 89.3498 64.1459 88.9026L61.9171 86.7624C62.4998 85.3561 62.6114 83.8109 62.5538 82.3094Z" fill="#FAFCFF"/>
<path d="M57.754 75.1221C60.8994 75.9184 63.5104 77.5074 65.5312 80.0588C66.9259 81.8196 67.6255 83.9094 67.3584 86.1612C66.8851 85.8759 62.6902 81.6456 62.4168 81.184C62.1319 80.7025 62.0396 80.0783 61.799 79.5647C60.9019 77.6499 59.4758 76.3017 57.754 75.1221Z" fill="#FAFCFF"/>
<path d="M53.1886 74.8786C55.5141 75.1374 57.8503 76.3318 59.3468 78.1314C60.7137 79.7753 61.4357 81.8286 61.2314 83.9668C61.0275 86.1023 60.0513 88.1462 58.3737 89.5193C56.44 91.1018 54.0059 91.6328 51.5557 91.4002C49.1195 91.0979 46.7353 89.8915 45.1805 87.9771C43.8822 86.3784 43.1668 84.2899 43.3985 82.2297C43.646 80.0295 44.6764 78.0417 46.4215 76.6537C48.3682 75.1056 50.744 74.6087 53.1886 74.8786Z" fill="#FAFCFF"/>
<path d="M73.7766 0.916506C75.1433 1.12588 76.5079 1.44972 77.8459 1.79587C88.0714 4.4414 98.5537 10.962 103.985 20.1856C107.766 26.6081 108.62 34.1615 106.727 41.3353C106.664 41.5711 106.597 41.8062 106.528 42.0405C106.459 42.2748 106.387 42.5083 106.312 42.7409C106.237 42.9735 106.16 43.2052 106.079 43.436C105.999 43.6667 105.916 43.8965 105.83 44.1252C105.744 44.354 105.655 44.5817 105.564 44.8084C105.473 45.0351 105.379 45.2606 105.282 45.4851C105.185 45.7095 105.086 45.9327 104.984 46.1549C104.882 46.3769 104.777 46.5977 104.67 46.8174C104.562 47.0369 104.452 47.2552 104.34 47.4721C104.227 47.6891 104.112 47.9047 103.994 48.119C103.876 48.3332 103.756 48.546 103.633 48.7574C103.51 48.9688 103.385 49.1787 103.257 49.3871C103.129 49.5955 102.998 49.8024 102.866 50.0077C102.733 50.2129 102.597 50.4166 102.46 50.6187C102.322 50.8208 102.182 51.0212 102.039 51.22C101.897 51.4187 101.752 51.6158 101.604 51.8111C101.457 52.0064 101.308 52.2 101.156 52.3917C101.004 52.5834 100.85 52.7734 100.693 52.9615C100.537 53.1496 100.378 53.3358 100.217 53.5201C100.056 53.7045 99.893 53.8868 99.7277 54.0673C99.5624 54.2477 99.3949 54.4262 99.2253 54.6027C99.0558 54.7791 98.8841 54.9536 98.7104 55.126C98.5366 55.2984 98.3608 55.4687 98.1829 55.6369C98.0051 55.8051 97.8253 55.9712 97.6435 56.1352C97.4617 56.2991 97.278 56.4608 97.0923 56.6204C96.9065 56.78 96.719 56.9374 96.5295 57.0925C96.34 57.2476 96.1487 57.4005 95.9556 57.551C95.7625 57.7016 95.5676 57.8499 95.3708 57.9958C95.1741 58.1418 94.9758 58.2854 94.7756 58.4266C94.5755 58.5678 94.3738 58.7067 94.1704 58.8431C93.9669 58.9796 93.7618 59.1136 93.5551 59.2451C93.3484 59.3767 93.1402 59.5058 92.9305 59.6324C90.7315 60.9837 88.3298 62.0759 85.9333 63.0281C84.6913 63.5216 83.4267 63.9949 82.1484 64.3866C81.5702 64.5639 80.9735 64.6714 80.3889 64.8246C79.3646 65.0932 78.3642 65.5268 77.4524 66.0613C77.3185 66.139 77.1864 66.2193 77.0558 66.3023C76.9253 66.3854 76.7966 66.4711 76.6696 66.5594C76.5427 66.6477 76.4176 66.7386 76.2943 66.832C76.1711 66.9255 76.0499 67.0214 75.9306 67.1198C75.8113 67.2182 75.6941 67.319 75.579 67.4222C75.4639 67.5254 75.351 67.6309 75.2403 67.7387C75.1296 67.8466 75.0211 67.9566 74.9149 68.0688C74.8087 68.1811 74.7048 68.2955 74.6034 68.412C74.5019 68.5285 74.4029 68.647 74.3062 68.7676C74.2097 68.8882 74.1157 69.0107 74.0242 69.1351C73.9326 69.2595 73.8437 69.3857 73.7573 69.5138C73.671 69.6418 73.5874 69.7716 73.5065 69.9031C73.4255 70.0346 73.3473 70.1676 73.2718 70.3023C73.1964 70.437 73.1237 70.5731 73.0539 70.7108C72.984 70.8485 72.9171 70.9875 72.853 71.1279C72.7889 71.2683 72.7277 71.4099 72.6695 71.5528C72.3758 72.2853 72.1774 73.0461 71.9794 73.8081C70.4484 74.454 68.8892 75.0416 67.3418 75.6471C63.1739 74.2089 58.9311 72.9915 54.7085 71.7258C51.8622 70.8725 49.0396 69.9387 46.1768 69.1385C46.6628 67.008 47.1297 64.8734 47.5775 62.7347C47.7808 61.7886 47.9602 60.8284 48.2008 59.8912C49.6122 54.3937 53.3542 49.9011 58.2086 47.0413C59.5143 46.2689 60.8538 45.5595 62.2269 44.9132C65.3301 43.4554 68.5374 42.207 71.3745 40.2532C74.4503 38.1349 76.8303 35.2453 77.4989 31.4956C78.0642 28.3254 77.4221 24.8169 75.5407 22.1624C74.6531 20.91 71.7607 20.0267 70.2892 19.7881C66.9353 19.244 63.1972 19.8465 60.4128 21.8546C57.2776 24.1158 55.7627 28.156 56.2929 31.9249C56.4651 33.1494 56.9963 34.4005 56.7894 35.6399C56.6257 36.6208 55.998 37.5484 55.1901 38.1224C54.6536 38.5036 54.0154 38.7125 53.3654 38.7948C52.0357 38.9633 50.5945 38.8847 49.2534 38.8938L42.8716 38.9613C41.7106 38.9712 40.5497 38.9869 39.3889 39.0085C38.5257 39.0221 37.6256 39.0876 36.7722 38.9418C35.8436 38.783 34.9179 38.2032 34.3847 37.4297C33.8897 36.7117 33.6413 35.7661 33.3478 34.948C31.8581 30.796 31.4468 26.9857 32.2322 22.6261C32.2698 22.4135 32.3101 22.2014 32.3529 21.9898C32.3958 21.7781 32.4413 21.5671 32.4894 21.3566C32.5375 21.1461 32.5882 20.9362 32.6414 20.7269C32.6947 20.5176 32.7506 20.309 32.809 20.1012C32.8674 19.8933 32.9284 19.6861 32.992 19.4797C33.0555 19.2733 33.1216 19.0677 33.1902 18.8629C33.2588 18.6581 33.3299 18.4542 33.4036 18.2512C33.4772 18.0481 33.5534 17.8459 33.6321 17.6447C33.7107 17.4436 33.7918 17.2434 33.8754 17.0442C33.959 16.845 34.045 16.6469 34.1335 16.4498C34.222 16.2527 34.3129 16.0567 34.4062 15.8619C34.4996 15.667 34.5953 15.4733 34.6934 15.2808C34.7915 15.0882 34.8919 14.897 34.9948 14.7069C35.0976 14.5168 35.2028 14.328 35.3102 14.1405C35.4178 13.9531 35.5276 13.7669 35.6396 13.5822C35.7517 13.3973 35.8661 13.2139 35.9827 13.0319C36.0993 12.8499 36.2182 12.6693 36.3392 12.4902C36.4604 12.3112 36.5836 12.1336 36.709 11.9575C36.8345 11.7814 36.9622 11.6069 37.092 11.434C37.2217 11.2611 37.3536 11.0897 37.4876 10.9201C37.6216 10.7503 37.7577 10.5822 37.8958 10.4158C38.034 10.2495 38.1742 10.0848 38.3164 9.92185C38.4586 9.75891 38.6028 9.59772 38.749 9.43825C38.8952 9.27886 39.0434 9.12125 39.1935 8.96544C39.3436 8.80968 39.4956 8.65576 39.6495 8.50368C39.8034 8.35155 39.9592 8.20138 40.1168 8.05317C40.2743 7.90489 40.4338 7.75857 40.595 7.61422C40.7562 7.46985 40.9192 7.32749 41.0839 7.18715C41.2487 7.04674 41.4151 6.9084 41.5833 6.77213C41.7514 6.63585 41.9212 6.50163 42.0927 6.36947C42.2642 6.23731 42.4372 6.10729 42.6119 5.97941C42.7865 5.85153 42.9628 5.72578 43.1406 5.60218C51.8054 -0.398054 63.7015 -0.875392 73.7766 0.916506Z" fill="#66727F"/>
<path d="M65.8539 69.9819C66.3951 70.3379 66.8967 70.793 67.4022 71.1986C68.251 71.8786 69.1041 72.5531 69.9616 73.2222C69.5833 73.3828 69.1976 73.5294 68.816 73.6826C68.2614 73.9084 67.715 74.1545 67.1603 74.3806C66.348 74.0785 65.7032 73.8627 65.1207 73.1825C65.3193 72.1103 65.6074 71.045 65.8539 69.9819Z" fill="#FAFCFF"/>
<path d="M64.4131 15.9383C67.1891 16.2828 69.8132 17.327 72.147 18.8322C71.1079 18.5663 70.0711 18.4157 69.005 18.3115C67.6978 18.248 66.4644 18.3619 65.1685 18.5163L62.3433 15.7009C63.0366 15.7509 63.7266 15.83 64.4131 15.9383Z" fill="#FAFCFF"/>
<path d="M61.2379 15.678C61.2627 15.68 61.2878 15.6802 61.3124 15.6839C61.591 15.7258 64.0384 18.2948 64.3333 18.6798C63.166 19.0122 61.997 19.4185 60.9286 19.9971L60.6073 19.6527C59.5096 18.505 58.3017 17.4415 57.2621 16.2414C58.4851 15.8209 59.9496 15.6989 61.2379 15.678Z" fill="#FAFCFF"/>
<path d="M56.5437 16.4842C57.8028 17.7794 59.0421 19.1089 60.3545 20.3507C59.4882 20.9555 58.6943 21.616 57.9518 22.368L57.5392 21.9888C56.1544 20.6799 54.8515 19.2819 53.5276 17.9126C53.7608 17.7595 53.9991 17.6147 54.2424 17.4781C54.4857 17.3415 54.7335 17.2135 54.9857 17.094C55.238 16.9746 55.4941 16.8639 55.7541 16.7622C56.0141 16.6604 56.2773 16.5678 56.5437 16.4842Z" fill="#FAFCFF"/>
<path d="M72.9653 60.649C73.4802 61.0125 73.972 61.5321 74.4512 61.9508C75.4583 62.8379 76.4772 63.7112 77.508 64.5708C77.0026 64.871 76.5091 65.1896 76.0277 65.5265C75.663 65.7839 75.2289 66.2018 74.8284 66.3622C74.7487 66.394 74.7222 66.354 74.6509 66.3183C73.0457 65.0178 71.4572 63.6975 69.8854 62.3573C70.3678 62.0207 70.8664 61.7096 71.3811 61.4241C71.8958 61.1386 72.4238 60.8803 72.9653 60.649Z" fill="#FAFCFF"/>
<path d="M76.8787 58.9995C77.3868 59.3036 77.8685 59.7939 78.3254 60.1781C79.4938 61.1513 80.6463 62.1428 81.7829 63.1526C80.6107 63.4533 79.4997 63.7919 78.3614 64.2071C78.2989 64.2319 78.2521 64.2468 78.1841 64.2535C77.9821 64.2733 74.0548 60.7898 73.5275 60.3572C74.6151 59.8324 75.7322 59.3799 76.8787 58.9995Z" fill="#FAFCFF"/>
<path d="M67.0343 65.8736L72.0189 69.9589C71.544 70.8627 71.231 71.7984 70.9216 72.7665C70.8049 72.8579 70.7343 72.8784 70.5934 72.9083C70.3044 72.8665 66.4577 69.6787 66.0404 69.2888C66.293 68.1124 66.6187 67.0039 67.0343 65.8736Z" fill="#FAFCFF"/>
<path d="M48.3959 29.5188C48.7374 29.7879 49.0346 30.1506 49.3322 30.4661L51.0637 32.2969L53.6562 34.9507C54.1368 35.4438 54.6662 35.9311 55.0777 36.4829C54.7677 36.8138 54.4445 37.0651 54.0568 37.3011C53.2581 37.6395 52.4098 37.5589 51.5592 37.5538C49.5846 35.3097 48.7199 32.4303 48.3959 29.5188Z" fill="#FAFCFF"/>
<path d="M69.3926 62.7926C69.8696 63.0713 70.3394 63.5475 70.7705 63.9002C71.963 64.8742 73.147 65.8582 74.3226 66.8524C73.5665 67.6622 72.899 68.5099 72.2679 69.4189C70.6417 68.0112 68.9784 66.6484 67.2781 65.3303C67.8116 64.3733 68.5649 63.5075 69.3926 62.7926Z" fill="#FAFCFF"/>
<path d="M80.9998 57.309C82.0624 58.2597 83.1386 59.1947 84.2285 60.1141C84.8104 60.6094 85.4432 61.0841 85.973 61.6332C84.9441 62.1716 83.7108 62.5281 82.6057 62.8823C82.5614 62.8778 82.5151 62.8828 82.4729 62.8687C82.2975 62.8106 78.116 59.2071 77.5952 58.7569C78.7128 58.2367 79.8607 57.7802 80.9998 57.309Z" fill="#FAFCFF"/>
<path d="M52.9727 18.2867C54.5277 19.764 55.987 21.3759 57.4829 22.9145C56.8748 23.8035 56.327 24.7067 55.833 25.6631L55.524 25.3575C53.8945 23.7737 52.3078 22.1498 50.6934 20.5512C51.3919 19.7128 52.1272 18.9775 52.9727 18.2867Z" fill="#FAFCFF"/>
<path d="M84.7962 55.386C85.2342 55.6212 85.8966 56.3298 86.2995 56.6825C87.5033 57.7362 88.7414 58.7426 89.8824 59.866C88.8098 60.3642 87.7726 60.8926 86.6806 61.3554C86.3804 61.2483 82.1821 57.5756 81.5941 57.0438C82.6538 56.4749 83.7471 55.9758 84.7962 55.386Z" fill="#FAFCFF"/>
<path d="M88.2814 53.0913C88.6826 53.3221 89.0757 53.7699 89.4343 54.0758C90.8283 55.2649 92.1817 56.4965 93.5596 57.7035C92.6304 58.3758 91.617 58.9361 90.6245 59.5093L90.5809 59.5272C90.4105 59.503 85.9027 55.5555 85.3952 55.0523C86.3894 54.461 87.3329 53.753 88.2814 53.0913Z" fill="#FAFCFF"/>
<path d="M50.3202 21.1293C52.0685 22.8675 53.8708 24.5789 55.5583 26.3746C55.2012 27.5911 54.9428 28.7112 54.8855 29.9858L54.5749 29.6925C52.7287 27.7765 50.8333 25.9054 48.9722 24.0033C49.2951 22.9893 49.7762 22.0413 50.3202 21.1293Z" fill="#FAFCFF"/>
<path d="M91.5925 50.3423C93.4677 51.785 95.0207 53.6192 96.8948 55.0754C96.0043 55.925 95.0873 56.669 94.0971 57.4013C92.4226 55.7447 90.5591 54.2547 88.791 52.6991C89.767 51.9481 90.6767 51.1632 91.5925 50.3423Z" fill="#FAFCFF"/>
<path d="M94.4291 47.0696C96.2063 48.7272 98.0182 50.3652 99.7213 52.0979C98.997 53.0189 98.2192 53.8171 97.3619 54.6132C95.5 53.2022 93.7392 51.4898 92.0855 49.8443C92.9265 48.9801 93.6868 48.0171 94.4291 47.0696Z" fill="#FAFCFF"/>
<path d="M96.7154 43.3973C98.5884 45.1068 100.41 46.882 102.256 48.6206C101.626 49.6189 100.941 50.5594 100.231 51.5027L100.124 51.5439C99.7992 51.3857 98.9112 50.4363 98.5854 50.1274C97.3384 48.9444 96.1078 47.69 94.7775 46.6024C94.9886 46.2155 95.2636 45.8479 95.5025 45.4763C95.9419 44.8036 96.3462 44.1106 96.7154 43.3973Z" fill="#FAFCFF"/>
<path d="M98.3948 39.3208C99.0714 39.8362 99.7058 40.537 100.316 41.1327C101.591 42.3961 102.874 43.6528 104.163 44.9027C103.714 45.926 103.213 46.9232 102.66 47.8944C102.594 48.0019 102.639 47.9628 102.528 48.0144C101.912 47.5761 101.338 46.9332 100.786 46.4119C99.5138 45.2104 98.2514 43.9988 96.9988 42.7772C97.5301 41.6474 97.9716 40.4943 98.3948 39.3208Z" fill="#FAFCFF"/>
<path d="M48.7653 24.8122C49.7196 25.6169 50.5824 26.5606 51.4517 27.4551C52.6064 28.6261 53.7425 29.8148 54.8599 31.0212C54.9222 31.5807 55.0082 32.1366 55.1178 32.6889C55.3225 33.7044 55.6755 34.7447 55.4386 35.7802C54.7079 35.188 54.0586 34.409 53.4017 33.7316C52.4302 32.7466 51.4694 31.7516 50.519 30.7464C49.8034 29.9854 49.1113 29.1942 48.3771 28.4519C48.3696 27.8398 48.3983 27.2294 48.4633 26.6206C48.5282 26.0119 48.6289 25.4091 48.7653 24.8122Z" fill="#FAFCFF"/>
<path d="M99.5934 34.1877C100.198 34.6009 100.736 35.2997 101.253 35.8268C102.66 37.2614 104.193 38.9385 105.681 40.2473C105.409 41.5435 104.951 42.8176 104.469 44.0493C104.443 44.1051 104.416 44.1366 104.376 44.1826C103.972 44.0537 99.5457 39.4282 98.5902 38.6404C99.0271 37.1596 99.3308 35.7065 99.5934 34.1877Z" fill="#FAFCFF"/>
<path d="M99.5704 27.5758C100.188 28.126 100.72 28.8159 101.274 29.4316C102.878 31.2142 104.5 33.1713 106.423 34.6213C106.4 35.4424 106.34 36.2608 106.243 37.0765C106.146 37.8922 106.013 38.7019 105.843 39.5057C105.206 39.0321 104.627 38.3755 104.069 37.8126L101.373 35.0737C100.806 34.4902 100.252 33.8819 99.6501 33.3332C99.8134 31.4002 99.8142 29.5029 99.5704 27.5758Z" fill="#FAFCFF"/>
<path d="M96.3371 18.0365C96.556 18.1585 96.7414 18.3468 96.924 18.5159C99.6357 21.0286 102.053 23.8495 104.404 26.6919C104.826 27.2021 105.627 27.9961 105.86 28.6004C106.34 29.8451 106.369 32.4089 106.417 33.7984C105.379 33.2082 101.854 29.1834 100.909 28.13C100.437 27.603 99.9669 26.9766 99.4119 26.5367C98.7731 23.373 97.8618 20.879 96.3371 18.0365Z" fill="#FAFCFF"/>
<path d="M80.3314 3.903C81.0618 4.08351 81.7779 4.36937 82.479 4.639C83.2371 4.93696 83.9872 5.25347 84.7295 5.58851C85.4719 5.92355 86.2053 6.2767 86.9299 6.64797C87.6547 7.01926 88.3697 7.4082 89.0749 7.8148C89.7802 8.22141 90.475 8.64518 91.1591 9.08611C96.7188 12.6994 101.815 17.6774 104.38 23.8741C104.793 24.8716 105.2 25.8803 105.424 26.9388C104.848 26.4207 104.358 25.6731 103.858 25.075C102.895 23.9207 101.907 22.7738 100.897 21.6604C99.1636 19.7506 97.1953 18.088 95.4338 16.2096C94.2741 14.973 93.3202 13.5613 92.1687 12.3168C89.5457 9.48204 86.4469 7.17043 83.0713 5.30064C82.1719 4.80249 81.2365 4.38602 80.3314 3.903Z" fill="#FAFCFF"/>
<path d="M69.5592 1.83911C69.7305 1.86875 69.9014 1.90087 70.0718 1.93547C71.0584 2.13449 72.036 2.41059 73.007 2.67422C75.0567 3.23073 77.1205 3.90235 79.0718 4.74162C85.0733 7.32284 90.5786 11.527 94.1964 16.9908C94.3127 17.1636 94.4269 17.3378 94.5388 17.5134C94.6507 17.6891 94.7605 17.866 94.868 18.0443C94.9756 18.2227 95.0809 18.4024 95.1839 18.5833C95.287 18.7643 95.3878 18.9464 95.4863 19.1299C95.5848 19.3133 95.681 19.4979 95.7749 19.6837C95.8688 19.8696 95.9604 20.0565 96.0496 20.2446C96.1389 20.4327 96.2258 20.6218 96.3103 20.8121C96.3948 21.0023 96.477 21.1935 96.5567 21.3858C96.6365 21.5781 96.7138 21.7713 96.7887 21.9654C96.8636 22.1596 96.9361 22.3547 97.0063 22.5507C97.0763 22.7466 97.1439 22.9434 97.2091 23.1411C97.2743 23.3387 97.3369 23.5371 97.3971 23.7363C97.4573 23.9355 97.5151 24.1354 97.5703 24.3361C97.6255 24.5366 97.6782 24.7379 97.7284 24.9398C97.7786 25.1418 97.8263 25.3443 97.8714 25.5473C97.9166 25.7504 97.9592 25.9541 97.9993 26.1583C98.0393 26.3624 98.0769 26.567 98.1119 26.7721C98.1468 26.9772 98.1792 27.1826 98.209 27.3885C98.2389 27.5944 98.2662 27.8006 98.2908 28.0071C98.3155 28.2137 98.3377 28.4206 98.3572 28.6277C98.3768 28.8348 98.3937 29.0421 98.408 29.2496C98.4224 29.4571 98.4342 29.6648 98.4434 29.8726C98.4526 30.0804 98.4592 30.2883 98.4632 30.4963C98.4672 30.7043 98.4686 30.9123 98.4674 31.1203C98.4662 31.3283 98.4624 31.5363 98.456 31.7442C98.4496 31.9521 98.4407 32.1599 98.4291 32.3676C98.4176 32.5753 98.4034 32.7828 98.3866 32.9902C98.3699 33.1975 98.3506 33.4046 98.3287 33.6115C98.3068 33.8184 98.2823 34.0249 98.2552 34.2312C98.2282 34.4375 98.1986 34.6434 98.1664 34.8489C98.1342 35.0544 98.0994 35.2595 98.0621 35.4642C98.0248 35.6688 97.985 35.873 97.9426 36.0767C95.797 46.3523 88.7881 52.5557 79.436 56.6108C76.1907 58.0179 72.7431 58.9831 69.7586 60.9406C66.4949 63.0812 65.6002 65.4406 64.7402 69.053C64.4169 70.3925 64.1146 71.7366 63.8334 73.0854C62.4618 72.7551 61.1023 72.2783 59.753 71.8632L52.6112 69.7196C50.9741 69.2228 49.3389 68.6563 47.675 68.2589C48.0905 66.4366 48.4896 64.6108 48.8724 62.7815C49.1523 61.4822 49.3967 60.1741 49.8349 58.9158C49.9857 58.4852 50.1512 58.0602 50.3312 57.6409C50.5112 57.2216 50.7055 56.8089 50.914 56.4028C51.1224 55.9968 51.3447 55.5983 51.5806 55.2074C51.8165 54.8165 52.0656 54.4341 52.3279 54.0602C56.2806 48.3932 62.3077 46.4072 68.266 43.5255C69.0452 43.1291 69.8181 42.7263 70.5629 42.268C74.4051 39.9037 77.5794 36.8897 78.6381 32.348C78.6637 32.2375 78.688 32.1266 78.7109 32.0155C78.7339 31.9044 78.7555 31.7929 78.7756 31.6813C78.7958 31.5697 78.8146 31.4578 78.832 31.3457C78.8494 31.2336 78.8655 31.1213 78.8801 31.0087C78.8948 30.8962 78.9081 30.7835 78.92 30.6707C78.9318 30.5578 78.9423 30.4449 78.9515 30.3319C78.9606 30.2187 78.9683 30.1055 78.9745 29.9923C78.9808 29.879 78.9857 29.7657 78.9892 29.6523C78.9928 29.5389 78.9949 29.4255 78.9956 29.312C78.9963 29.1986 78.9956 29.0851 78.9936 28.9717C78.9914 28.8583 78.988 28.7449 78.9831 28.6315C78.9782 28.5181 78.972 28.4049 78.9643 28.2917C78.9567 28.1785 78.9476 28.0654 78.9371 27.9525C78.9267 27.8395 78.9148 27.7267 78.9016 27.614C78.8884 27.5013 78.8738 27.3888 78.8578 27.2764C78.8417 27.1641 78.8243 27.052 78.8056 26.9402C78.7868 26.8282 78.7667 26.7166 78.7452 26.6052C78.7236 26.4938 78.7007 26.3826 78.6765 26.2718C78.6522 26.1609 78.6265 26.0504 78.5996 25.9402C78.5726 25.8299 78.5443 25.7201 78.5146 25.6105C78.4849 25.501 78.4538 25.3919 78.4214 25.2831C78.389 25.1743 78.3553 25.066 78.3203 24.958C78.2852 24.8501 78.2488 24.7426 78.2111 24.6355C78.1734 24.5284 78.1344 24.4218 78.0941 24.3157C78.0538 24.2096 78.0121 24.104 77.9692 23.9989C77.9263 23.8939 77.882 23.7893 77.8365 23.6853C77.791 23.5813 77.7442 23.4779 77.6962 23.375C77.6481 23.2721 77.5987 23.1699 77.5481 23.0682C77.4976 22.9666 77.4457 22.8655 77.3927 22.7652C77.3396 22.6647 77.2853 22.565 77.2298 22.466C77.1742 22.3669 77.1175 22.2685 77.0595 22.1709C77.0016 22.0731 76.9424 21.9762 76.8821 21.88C74.5315 18.1918 70.4628 15.8454 66.2484 14.9046C61.7211 13.894 56.9283 14.2175 52.9391 16.7529C50.0768 18.5723 48.181 21.4815 47.4572 24.7625C46.4718 29.2298 47.4249 33.7668 49.8849 37.591C48.5212 37.5449 47.1364 37.6061 45.7714 37.627L40.5027 37.6771C39.518 37.6902 37.9843 37.8297 37.0655 37.6982C36.4309 37.6074 35.8949 37.2229 35.5256 36.707C35.0593 36.0556 34.8172 35.1591 34.5439 34.4085C33.1346 30.5373 32.8183 27.1207 33.477 23.0524C33.51 22.8528 33.5455 22.6537 33.5833 22.455C33.6212 22.2563 33.6615 22.058 33.7042 21.8603C33.7469 21.6625 33.7921 21.4653 33.8396 21.2687C33.8871 21.0721 33.937 20.876 33.9893 20.6806C34.0416 20.4852 34.0963 20.2904 34.1534 20.0963C34.2106 19.9022 34.27 19.7088 34.3318 19.5162C34.3936 19.3235 34.4577 19.1316 34.5242 18.9404C34.5907 18.7493 34.6596 18.5591 34.7307 18.3696C34.8018 18.1802 34.8753 17.9917 34.951 17.804C35.0268 17.6163 35.1049 17.4296 35.1852 17.2438C35.2655 17.058 35.3481 16.8733 35.4329 16.6895C35.5177 16.5057 35.6048 16.323 35.6941 16.1413C35.7834 15.9597 35.8749 15.7791 35.9687 15.5997C36.0624 15.4202 36.1583 15.2419 36.2564 15.0647C36.3544 14.8876 36.4546 14.7117 36.557 14.537C36.6594 14.3623 36.7639 14.1889 36.8705 14.0168C36.9771 13.8446 37.0858 13.6737 37.1966 13.5042C37.3075 13.3347 37.4203 13.1666 37.5352 12.9998C37.6501 12.833 37.767 12.6676 37.886 12.5036C38.0049 12.3397 38.1259 12.1772 38.2488 12.0161C38.3717 11.8551 38.4965 11.6956 38.6233 11.5376C38.7501 11.3795 38.8789 11.2231 39.0095 11.0682C39.1401 10.9134 39.2726 10.7601 39.407 10.6084C39.5414 10.4567 39.6777 10.3067 39.8157 10.1584C39.9537 10.01 40.0936 9.86327 40.2352 9.71831C40.3768 9.57328 40.5202 9.43003 40.6654 9.28855C40.8105 9.14702 40.9574 9.00727 41.1059 8.86932C41.2544 8.73139 41.4047 8.59527 41.5566 8.46099C41.7085 8.32663 41.8619 8.19415 42.0171 8.06355C42.1722 7.93295 42.3289 7.80426 42.4871 7.67748C42.6454 7.55069 42.8052 7.42584 42.9665 7.3029C43.1278 7.17997 43.2906 7.05902 43.4549 6.94005C50.7223 1.71644 60.8819 0.436013 69.5592 1.83911Z" fill="#FAFCFF"/>
<defs>
<linearGradient id="paint0_linear_60_2342" x1="59" y1="0" x2="59" y2="120" gradientUnits="userSpaceOnUse">
<stop stop-color="#085DA9"/>
<stop offset="0.2" stop-color="#6C5B97"/>
<stop offset="0.4" stop-color="#995685"/>
<stop offset="0.6" stop-color="#BE4F73"/>
<stop offset="0.8" stop-color="#E04461"/>
<stop offset="1" stop-color="#FF314F"/>
</linearGradient>
</defs>
</svg>
