<svg width="54" height="73" viewBox="0 0 54 73" fill="none" xmlns="http://www.w3.org/2000/svg">
<g clip-path="url(#clip0_3_3)">
<path d="M27.3657 1.91552C31.9918 3.16331 51.7195 6.58412 51.7195 6.58412L50.3532 38.0562C50.3532 38.0562 48.9869 53.6083 41.6069 58.7013C35.3977 62.9851 29.7709 67.5264 27.6506 70.2695C27.556 70.393 27.4341 70.4931 27.2945 70.562C27.1549 70.6309 27.0013 70.6667 26.8455 70.6667C26.6898 70.6667 26.5362 70.6309 26.3965 70.562C26.2569 70.4931 26.1351 70.393 26.0405 70.2695C23.9145 67.5264 18.292 62.9851 12.0841 58.7013C4.70411 53.6055 3.33781 38.0562 3.33781 38.0562L1.97009 6.58412C1.97009 6.58412 21.6978 3.16331 26.3254 1.91552C26.666 1.82357 27.025 1.82357 27.3657 1.91552Z" stroke="url(#paint0_linear_3_3)" stroke-width="3" stroke-miterlimit="10"/>
<path d="M27.2963 4.73654C31.3045 5.86832 48.3945 9.01892 48.3945 9.01892L47.2111 37.6742C47.2111 37.6742 46.0276 51.806 39.6341 56.4477C34.2553 60.3495 29.3797 64.4848 27.5429 66.9818C27.4646 67.0941 27.3602 67.1859 27.2386 67.2493C27.1171 67.3127 26.982 67.3458 26.8449 67.3458C26.7077 67.3458 26.5726 67.3127 26.4511 67.2493C26.3295 67.1859 26.2251 67.0941 26.1468 66.9818C24.3043 64.4848 19.4358 60.3495 14.0571 56.4477C7.66351 51.8102 6.47863 37.6474 6.47863 37.6474L5.29517 8.9878C5.29517 8.9878 22.3938 5.87257 26.3949 4.73654C26.6895 4.65309 27.0016 4.65309 27.2963 4.73654Z" fill="url(#paint1_linear_3_3)"/>
<path d="M20.3542 13.3904C22.9805 13.3904 24.8485 13.3522 27.4592 13.3904L27.4153 18.7423C26.0688 18.7098 23.5049 18.6857 21.7276 18.6857C16.0725 18.6857 13.972 19.4016 13.972 26.3083C13.972 33.1782 16.0725 34.1091 21.7276 34.1091C23.5049 34.1091 25.8123 34.1176 27.3969 34.1303L27.3657 39.4398C25.2057 39.4313 22.9833 39.4398 20.357 39.4398C11.3088 39.4398 7.0271 36.3981 7.0271 26.2361C7.02427 16.0373 11.306 13.3904 20.3542 13.3904Z" fill="white"/>
<path d="M42.4729 29.6386H27.5286V34.218H36.9808C41.9074 34.218 44.5337 36.7943 44.5337 41.9113C44.5337 47.815 41.665 49.5325 37.1012 49.5325H21.0245V24.5922H42.4729V29.6386ZM35.4047 44.6347C36.7781 44.6347 37.4655 43.8113 37.4655 41.8802C37.4655 39.8402 36.6973 38.9093 35.2431 38.9093H27.5286V44.6347H35.4047Z" fill="white"/>
</g>
<defs>
<linearGradient id="paint0_linear_3_3" x1="1.4556" y1="36.2552" x2="52.234" y2="36.2552" gradientUnits="userSpaceOnUse">
<stop stop-color="#FF314F"/>
<stop offset="1" stop-color="#005EAC"/>
</linearGradient>
<linearGradient id="paint1_linear_3_3" x1="5.29517" y1="36.0063" x2="48.3945" y2="36.0063" gradientUnits="userSpaceOnUse">
<stop stop-color="#FF314F"/>
<stop offset="1" stop-color="#005EAC"/>
</linearGradient>
<clipPath id="clip0_3_3">
<rect width="54" height="73" fill="white"/>
</clipPath>
</defs>
</svg>
